<svg width="49" height="49" viewBox="0 0 49 49" fill="none" xmlns="http://www.w3.org/2000/svg">
<mask id="mask0_1_228" style="mask-type:alpha" maskUnits="userSpaceOnUse" x="0" y="0" width="49" height="49">
<path fill-rule="evenodd" clip-rule="evenodd" d="M49 48.5V48.0054L24.75 48.267L3.23225 48.5H49ZM0.380008 24.5C0.382008 38.626 0.619008 44.977 0.941008 39.5C1.35001 32.558 1.70901 30.747 2.27501 32.775C3.38201 36.736 9.81101 43.499 14.5 45.634C19.815 48.055 29.243 48.039 34.5 45.6C42.938 41.685 48 33.586 48 24C48 14.414 42.938 6.315 34.5 2.4C29.243 -0.0389963 19.815 -0.0549966 14.5 2.366C9.81101 4.501 3.38201 11.264 2.27501 15.225C1.69901 17.286 1.35601 15.685 0.939008 9C0.629008 4.021 0.379008 10.946 0.380008 24.5ZM14.65 16.519C19.917 21.641 21.332 22.5 24.5 22.5C27.668 22.5 29.083 21.641 34.35 16.519C39.782 11.236 40.22 10.536 38.104 10.519C36.626 10.507 33.864 12.225 30.897 15C28.251 17.475 25.372 19.5 24.5 19.5C23.628 19.5 20.749 17.475 18.103 15C15.136 12.225 12.374 10.507 10.896 10.519C8.78001 10.536 9.21801 11.236 14.65 16.519ZM14.5 31.5C9.06101 36.997 8.77301 37.5 11.073 37.5C12.728 37.5 15.09 35.966 18 33C20.434 30.52 23.352 28.5 24.5 28.5C25.648 28.5 28.566 30.52 31 33C33.91 35.966 36.272 37.5 37.927 37.5C40.227 37.5 39.939 36.997 34.5 31.5C29.182 26.126 28.139 25.5 24.5 25.5C20.861 25.5 19.818 26.126 14.5 31.5Z" fill="#D9D9D9"/>
</mask>
<g mask="url(#mask0_1_228)">
<rect width="49" height="49" transform="translate(0 -0.5)" fill="#414040"/>
</g>
</svg>
