<svg width="37" height="37" viewBox="0 0 37 37" fill="none" xmlns="http://www.w3.org/2000/svg">
<mask id="mask0_1_144" style="mask-type:alpha" maskUnits="userSpaceOnUse" x="0" y="0" width="37" height="37">
<path fill-rule="evenodd" clip-rule="evenodd" d="M37 36.5V36.0073L18.75 36.272L3.03302 36.5H37ZM0.390014 18.5C0.382014 30.645 0.571014 34.039 0.939014 28.381C1.48901 19.928 1.54401 19.779 3.77201 20.607C6.67101 21.685 7.46301 23.767 6.00801 26.486C4.45201 29.392 6.36401 31.911 9.03901 30.479C12.131 28.824 13.883 29.372 15.5 32.5C17.481 36.331 19.814 36.331 21.15 32.5C22.251 29.342 24.557 28.657 27.961 30.479C30.551 31.865 32.548 29.393 31.069 26.63C29.329 23.377 29.82 21.817 33 20.5C36.902 18.884 36.845 16.257 32.876 14.759C30.123 13.72 29.83 13.248 30.407 10.79C31.679 5.38001 31.597 4.98901 29.25 5.25001C28.012 5.38801 26.003 5.61301 24.784 5.75001C23.221 5.92601 22.174 5.19001 21.23 3.25001C19.86 0.436014 16 -0.626986 16 1.80901C16 2.52901 15.385 3.95801 14.634 4.98601C13.411 6.65801 12.934 6.71501 10.078 5.53201C5.71701 3.72601 4.22601 5.21701 6.03201 9.57801C7.21501 12.434 7.15801 12.911 5.48601 14.134C1.80301 16.827 1.10101 15.881 0.743014 7.75001C0.556014 3.48701 0.397014 8.32501 0.390014 18.5ZM14.302 9.51201C11.877 10.489 9.00001 15.297 9.00001 18.374C9.00001 19.459 10.165 21.731 11.589 23.423C13.677 25.904 14.944 26.5 18.134 26.5C26.653 26.5 30.396 16.535 23.923 11.089C20.746 8.41501 18.101 7.98201 14.302 9.51201ZM14.392 14.017C10.588 17.821 12.779 23.5 18.051 23.5C23.743 23.5 26.331 16.246 21.777 13.057C18.716 10.912 17.315 11.094 14.392 14.017Z" fill="#D9D9D9"/>
</mask>
<g mask="url(#mask0_1_144)">
<rect width="37" height="37" transform="translate(0 -0.5)" fill="#272727"/>
</g>
</svg>
