<svg width="54" height="55" viewBox="0 0 54 55" fill="none" xmlns="http://www.w3.org/2000/svg">
<mask id="mask0_1_235" style="mask-type:alpha" maskUnits="userSpaceOnUse" x="0" y="0" width="54" height="55">
<path fill-rule="evenodd" clip-rule="evenodd" d="M54 0.5H0V54.5H54L42.75 54.456C32.059 54.414 31.689 54.345 35.297 53.058C41.865 50.715 46.837 46.714 49.971 41.249C51.627 38.362 52.985 35.212 52.991 34.25C52.996 33.288 53.225 32.5 53.5 32.5C53.775 32.5 54 37.45 54 43.5V0.5ZM54 0.5L53.956 11.75C53.915 22.175 53.817 22.735 52.619 19.382C49.466 10.557 43.988 5.043 35.297 1.942C31.689 0.655 32.059 0.586 42.75 0.544L54 0.5ZM0 54.5L11.25 54.456C21.675 54.415 22.235 54.317 18.882 53.119C10.057 49.966 4.543 44.488 1.442 35.797C0.155 32.189 0.086 32.559 0.044 43.25L0 54.5ZM0 0.5L11.25 0.544C21.675 0.585 22.235 0.683 18.882 1.881C10.057 5.034 4.543 10.512 1.442 19.203C0.155 22.811 0.086 22.441 0.044 11.75L0 0.5ZM16.23 5.563C11.174 8.128 5.512 14.417 3.922 19.237C3.296 21.132 2.959 25.772 3.173 29.548C3.628 37.604 6.738 42.964 13.864 47.972C17.872 50.789 18.789 51 27 51C35.211 51 36.128 50.789 40.136 47.972C42.505 46.307 45.807 43.005 47.472 40.636C50.289 36.628 50.5 35.711 50.5 27.5C50.5 19.289 50.289 18.372 47.472 14.364C45.807 11.995 42.508 8.695 40.141 7.032C36.41 4.409 34.819 3.967 28.169 3.702C21.882 3.452 19.731 3.787 16.23 5.563ZM14.5 17.896C19.012 21.95 20.822 23.026 21.799 22.231C23.912 20.512 15.465 12.499 11.542 12.502C8.518 12.504 8.536 12.536 14.5 17.896ZM35.16 16.837C31.817 20.243 31.182 21.404 32.201 22.241C33.182 23.046 34.971 21.988 39.5 17.928C45.474 12.572 45.487 12.548 42.458 12.524C40.173 12.506 38.357 13.579 35.16 16.837ZM25 20.917C25 22.246 24.469 23.51 23.82 23.727C21.697 24.434 23.794 27.296 26.941 27.987C30.97 28.872 29.732 30.896 25.66 30.082C23.224 29.595 22.823 29.723 23.781 30.681C24.452 31.352 25 32.935 25 34.2C25 35.833 25.58 36.5 27 36.5C28.454 36.5 29 35.833 29 34.059C29 32.716 29.45 31.34 30 31C32.039 29.74 30.929 27.436 28 26.85C26.35 26.52 25 25.8 25 25.25C25 24.657 26.31 24.512 28.219 24.894C30.75 25.4 31.177 25.277 30.219 24.319C29.548 23.648 29 22.065 29 20.8C29 19.167 28.42 18.5 27 18.5C25.552 18.5 25 19.167 25 20.917ZM14 37L8.568 42.5H11.576C15.501 42.5 23.726 34.626 21.806 32.706C21.143 32.043 20.337 31.5 20.016 31.5C19.695 31.5 16.987 33.975 14 37ZM32.194 32.706C30.274 34.626 38.499 42.5 42.424 42.5H45.432L40 37C37.013 33.975 34.305 31.5 33.984 31.5C33.663 31.5 32.857 32.043 32.194 32.706Z" fill="#D9D9D9"/>
</mask>
<g mask="url(#mask0_1_235)">
<rect width="54" height="54" transform="translate(0 0.5)" fill="#414040"/>
</g>
</svg>
